<svg width="220" height="44" viewBox="0 0 220 44" fill="none" xmlns="http://www.w3.org/2000/svg">
  <rect x="2" y="6" width="32" height="32" rx="10" fill="#0F172A"/>
  <path d="M12 23C12 17.5 16.5 13 22 13H25.5V17H22C18.7 17 16 19.7 16 23C16 26.3 18.7 29 22 29H25.5V33H22C16.5 33 12 28.5 12 23Z" fill="#38BDF8"/>
  <path d="M24 13H28.5C31.5 13 34 15.5 34 18.5C34 20.4 33 22.1 31.4 23C33 23.9 34 25.6 34 27.5C34 30.5 31.5 33 28.5 33H24V29H28.5C29.3 29 30 28.3 30 27.5C30 26.7 29.3 26 28.5 26H24V22H28.5C29.3 22 30 21.3 30 20.5C30 19.7 29.3 19 28.5 19H24V13Z" fill="#E2E8F0"/>
  <text x="44" y="29" fill="#0F172A" font-family="Segoe UI, Arial, sans-serif" font-weight="700" font-size="22">DeepFocus Time</text>
</svg>
