<svg xmlns="http://www.w3.org/2000/svg" xmlns:xlink="http://www.w3.org/1999/xlink" width="1000" zoomAndPan="magnify" viewBox="0 0 750 749.999995" height="1000" preserveAspectRatio="xMidYMid meet" version="1.0"><defs><clipPath id="b331e9b295"><path d="M 93.265625 17.25 L 649 17.25 L 649 581.25 L 93.265625 581.25 Z M 93.265625 17.25 " clip-rule="nonzero"/></clipPath><clipPath id="eda28aa555"><path d="M 75 651 L 124 651 L 124 685 L 75 685 Z M 75 651 " clip-rule="nonzero"/></clipPath><clipPath id="a6c78c8de8"><path d="M 370.445312 363.085938 L 675.386719 668.027344 L 370.445312 972.964844 L 65.507812 668.027344 Z M 370.445312 363.085938 " clip-rule="nonzero"/></clipPath><clipPath id="12f842c9d5"><path d="M 370.445312 363.085938 L 675.386719 668.027344 L 370.445312 972.964844 L 65.507812 668.027344 Z M 370.445312 363.085938 " clip-rule="nonzero"/></clipPath><clipPath id="33770aeb95"><path d="M 370.445312 363.085938 L 675.386719 668.027344 L 370.445312 972.964844 L 65.507812 668.027344 Z M 370.445312 363.085938 " clip-rule="nonzero"/></clipPath><clipPath id="755bf02d07"><path d="M 68 644 L 130 644 L 130 692 L 68 692 Z M 68 644 " clip-rule="nonzero"/></clipPath><clipPath id="a5c7467103"><path d="M 370.445312 363.085938 L 675.386719 668.027344 L 370.445312 972.964844 L 65.507812 668.027344 Z M 370.445312 363.085938 " clip-rule="nonzero"/></clipPath><clipPath id="0c481955f0"><path d="M 370.445312 363.085938 L 675.386719 668.027344 L 370.445312 972.964844 L 65.507812 668.027344 Z M 370.445312 363.085938 " clip-rule="nonzero"/></clipPath><clipPath id="e138bb9cb4"><path d="M 370.445312 363.085938 L 675.386719 668.027344 L 370.445312 972.964844 L 65.507812 668.027344 Z M 370.445312 363.085938 " clip-rule="nonzero"/></clipPath><clipPath id="1ab533807f"><path d="M 123 613 L 257 613 L 257 723 L 123 723 Z M 123 613 " clip-rule="nonzero"/></clipPath><clipPath id="5e7af27361"><path d="M 370.445312 363.085938 L 675.386719 668.027344 L 370.445312 972.964844 L 65.507812 668.027344 Z M 370.445312 363.085938 " clip-rule="nonzero"/></clipPath><clipPath id="3da1db2d2e"><path d="M 370.445312 363.085938 L 675.386719 668.027344 L 370.445312 972.964844 L 65.507812 668.027344 Z M 370.445312 363.085938 " clip-rule="nonzero"/></clipPath><clipPath id="9e4eec5e38"><path d="M 370.445312 363.085938 L 675.386719 668.027344 L 370.445312 972.964844 L 65.507812 668.027344 Z M 370.445312 363.085938 " clip-rule="nonzero"/></clipPath><clipPath id="c689a4c5b0"><path d="M 116 607 L 264 607 L 264 730 L 116 730 Z M 116 607 " clip-rule="nonzero"/></clipPath><clipPath id="d6cd311e17"><path d="M 370.445312 363.085938 L 675.386719 668.027344 L 370.445312 972.964844 L 65.507812 668.027344 Z M 370.445312 363.085938 " clip-rule="nonzero"/></clipPath><clipPath id="692a5057b2"><path d="M 370.445312 363.085938 L 675.386719 668.027344 L 370.445312 972.964844 L 65.507812 668.027344 Z M 370.445312 363.085938 " clip-rule="nonzero"/></clipPath><clipPath id="81f63eed33"><path d="M 370.445312 363.085938 L 675.386719 668.027344 L 370.445312 972.964844 L 65.507812 668.027344 Z M 370.445312 363.085938 " clip-rule="nonzero"/></clipPath><clipPath id="ead69d70bf"><path d="M 579 613 L 633 613 L 633 723 L 579 723 Z M 579 613 " clip-rule="nonzero"/></clipPath><clipPath id="b3ab05c46a"><path d="M 370.445312 363.085938 L 675.386719 668.027344 L 370.445312 972.964844 L 65.507812 668.027344 Z M 370.445312 363.085938 " clip-rule="nonzero"/></clipPath><clipPath id="a0e956437c"><path d="M 370.445312 363.085938 L 675.386719 668.027344 L 370.445312 972.964844 L 65.507812 668.027344 Z M 370.445312 363.085938 " clip-rule="nonzero"/></clipPath><clipPath id="26835bc898"><path d="M 370.445312 363.085938 L 675.386719 668.027344 L 370.445312 972.964844 L 65.507812 668.027344 Z M 370.445312 363.085938 " clip-rule="nonzero"/></clipPath><clipPath id="49ccdb0e04"><path d="M 572 607 L 645 607 L 645 730 L 572 730 Z M 572 607 " clip-rule="nonzero"/></clipPath><clipPath id="9ccb50fa1c"><path d="M 370.445312 363.085938 L 675.386719 668.027344 L 370.445312 972.964844 L 65.507812 668.027344 Z M 370.445312 363.085938 " clip-rule="nonzero"/></clipPath><clipPath id="3eb64dfcd2"><path d="M 370.445312 363.085938 L 675.386719 668.027344 L 370.445312 972.964844 L 65.507812 668.027344 Z M 370.445312 363.085938 " clip-rule="nonzero"/></clipPath><clipPath id="6b949f661e"><path d="M 370.445312 363.085938 L 675.386719 668.027344 L 370.445312 972.964844 L 65.507812 668.027344 Z M 370.445312 363.085938 " clip-rule="nonzero"/></clipPath><clipPath id="1258dd0b52"><path d="M 232 613 L 580 613 L 580 723 L 232 723 Z M 232 613 " clip-rule="nonzero"/></clipPath><clipPath id="2ac337a8fd"><path d="M 370.445312 363.085938 L 675.386719 668.027344 L 370.445312 972.964844 L 65.507812 668.027344 Z M 370.445312 363.085938 " clip-rule="nonzero"/></clipPath><clipPath id="0bfdd35d3f"><path d="M 370.445312 363.085938 L 675.386719 668.027344 L 370.445312 972.964844 L 65.507812 668.027344 Z M 370.445312 363.085938 " clip-rule="nonzero"/></clipPath><clipPath id="2b6e29f5ae"><path d="M 370.445312 363.085938 L 675.386719 668.027344 L 370.445312 972.964844 L 65.507812 668.027344 Z M 370.445312 363.085938 " clip-rule="nonzero"/></clipPath><clipPath id="f3542fe54d"><path d="M 225 607 L 586 607 L 586 730 L 225 730 Z M 225 607 " clip-rule="nonzero"/></clipPath><clipPath id="719b9a318a"><path d="M 370.445312 363.085938 L 675.386719 668.027344 L 370.445312 972.964844 L 65.507812 668.027344 Z M 370.445312 363.085938 " clip-rule="nonzero"/></clipPath><clipPath id="5cc43b3a84"><path d="M 370.445312 363.085938 L 675.386719 668.027344 L 370.445312 972.964844 L 65.507812 668.027344 Z M 370.445312 363.085938 " clip-rule="nonzero"/></clipPath><clipPath id="8de923a088"><path d="M 370.445312 363.085938 L 675.386719 668.027344 L 370.445312 972.964844 L 65.507812 668.027344 Z M 370.445312 363.085938 " clip-rule="nonzero"/></clipPath><clipPath id="c0d3e67cc9"><path d="M 516 613 L 580 613 L 580 723 L 516 723 Z M 516 613 " clip-rule="nonzero"/></clipPath><clipPath id="5e52188d83"><path d="M 370.445312 363.085938 L 675.386719 668.027344 L 370.445312 972.964844 L 65.507812 668.027344 Z M 370.445312 363.085938 " clip-rule="nonzero"/></clipPath><clipPath id="c5f6a956fc"><path d="M 370.445312 363.085938 L 675.386719 668.027344 L 370.445312 972.964844 L 65.507812 668.027344 Z M 370.445312 363.085938 " clip-rule="nonzero"/></clipPath><clipPath id="154f684674"><path d="M 370.445312 363.085938 L 675.386719 668.027344 L 370.445312 972.964844 L 65.507812 668.027344 Z M 370.445312 363.085938 " clip-rule="nonzero"/></clipPath><clipPath id="162631257a"><path d="M 509 607 L 586 607 L 586 729 L 509 729 Z M 509 607 " clip-rule="nonzero"/></clipPath><clipPath id="67641f8a1d"><path d="M 370.445312 363.085938 L 675.386719 668.027344 L 370.445312 972.964844 L 65.507812 668.027344 Z M 370.445312 363.085938 " clip-rule="nonzero"/></clipPath><clipPath id="8e6251fd87"><path d="M 370.445312 363.085938 L 675.386719 668.027344 L 370.445312 972.964844 L 65.507812 668.027344 Z M 370.445312 363.085938 " clip-rule="nonzero"/></clipPath><clipPath id="864fee54f0"><path d="M 370.445312 363.085938 L 675.386719 668.027344 L 370.445312 972.964844 L 65.507812 668.027344 Z M 370.445312 363.085938 " clip-rule="nonzero"/></clipPath></defs><path fill="#0cc0df" d="M 163.902344 351.519531 C 162.710938 350.582031 163.238281 348.230469 163.21875 346.730469 C 164.402344 347.660156 163.894531 350.023438 163.902344 351.519531 Z M 163.902344 351.519531 " fill-opacity="1" fill-rule="nonzero"/><g clip-path="url(#b331e9b295)"><path fill="#020202" d="M 378.714844 67.613281 L 378.714844 87.453125 C 427.210938 88.59375 473.695312 104.882812 513.011719 132.734375 C 515.417969 134.4375 529.128906 145.808594 530.175781 145.554688 L 538.097656 137.050781 L 470.464844 77.445312 C 466.902344 70.609375 474.605469 64.535156 479.265625 60.414062 C 509.988281 33.242188 555.898438 28.640625 591.820312 48.292969 C 613.109375 20.277344 650.667969 50.214844 627.136719 77.410156 C 651.597656 109.582031 656.367188 152.574219 636.734375 188.476562 C 633.039062 195.234375 624.144531 212.054688 615.175781 204.324219 L 550.054688 146.992188 L 541.574219 156.300781 C 546.894531 162.746094 552.957031 168.582031 558.300781 175.011719 C 641.179688 274.777344 630.496094 419.574219 537.441406 508.566406 C 536.867188 509.117188 536.195312 509.535156 535.375 509.570312 L 552.285156 544.980469 C 558.03125 566.5625 539.980469 585.527344 518.136719 580.5 C 502.621094 576.929688 494.589844 556.765625 483.074219 547.175781 C 413.574219 583.371094 328.839844 583.332031 259.316406 547.195312 L 257.925781 547.8125 L 235.878906 574.554688 C 223.632812 585.425781 202.636719 582.878906 193.714844 569.019531 C 180.273438 548.140625 199.886719 528.765625 206.992188 509.578125 C 206.167969 509.550781 205.503906 509.125 204.929688 508.570312 C 110.582031 418.324219 100.800781 271.835938 186.496094 171.953125 C 191.117188 166.570312 196.347656 161.800781 200.804688 156.292969 L 192.347656 146.992188 L 125.859375 205.03125 C 117.109375 209.53125 109.925781 196.164062 106.332031 189.84375 C 85.980469 154.058594 90.457031 109.691406 115.261719 77.402344 C 91.578125 50.375 129.183594 20.359375 150.554688 48.265625 C 186.667969 28.777344 233.320312 33.1875 263.796875 61.101562 C 271.046875 67.742188 277.757812 73.558594 267.214844 81.644531 L 205.597656 135.648438 C 203.839844 138.289062 210.324219 143.160156 212.234375 145.527344 C 219.171875 140.996094 225.300781 135.414062 232.101562 130.675781 C 270.515625 103.910156 316.707031 88.847656 363.667969 87.453125 L 363.667969 67.613281 L 342.804688 67.613281 C 341.914062 67.613281 336.121094 65.148438 334.976562 64.492188 C 314.332031 52.570312 321.601562 19.425781 346.199219 17.644531 C 363.183594 16.414062 381.695312 18.574219 398.847656 17.734375 C 419.289062 21.457031 426.539062 48.203125 410.886719 61.8125 C 408.894531 63.542969 401.980469 67.621094 399.59375 67.621094 L 378.726562 67.621094 Z M 378.714844 67.613281 " fill-opacity="1" fill-rule="nonzero"/></g><path fill="#ff66c4" d="M 140.867188 331.480469 C 140.867188 204.851562 243.519531 102.203125 370.148438 102.203125 C 496.777344 102.203125 599.429688 204.851562 599.429688 331.480469 C 599.429688 458.113281 496.777344 560.761719 370.148438 560.761719 C 243.519531 560.761719 140.867188 458.113281 140.867188 331.480469 Z M 140.867188 331.480469 " fill-opacity="1" fill-rule="nonzero"/><path fill="#0cc0df" d="M 395.308594 32.886719 C 405.613281 34.636719 406.988281 48.777344 396.964844 52.179688 C 393.941406 53.207031 390.679688 53.152344 387.484375 53.089844 C 376.515625 52.871094 352.527344 57.050781 343.242188 51.125 C 334.800781 45.734375 338.269531 34.269531 347.765625 32.90625 " fill-opacity="1" fill-rule="nonzero"/><path fill="#0cc0df" d="M 523.738281 520.496094 C 525.660156 529.230469 537.867188 544.992188 538.144531 553.003906 C 538.535156 564.054688 524.710938 570.496094 516.535156 562.9375 L 497.085938 539.300781 L 523.746094 520.488281 Z M 523.738281 520.496094 " fill-opacity="1" fill-rule="nonzero"/><path fill="#0cc0df" d="M 218.644531 520.496094 L 245.234375 539.300781 L 224.453125 563.59375 C 212.980469 570.121094 200.796875 560.980469 205.515625 548.078125 C 208.792969 539.125 215.503906 529.738281 218.644531 520.496094 Z M 218.644531 520.496094 " fill-opacity="1" fill-rule="nonzero"/><path fill="#0cc0df" d="M 620.125 186.558594 L 488.871094 72.742188 C 515.425781 48.410156 554.703125 45.558594 586.011719 62.46875 C 630.296875 86.386719 647.890625 143.289062 620.125 186.566406 Z M 620.125 186.558594 " fill-opacity="1" fill-rule="nonzero"/><path fill="#0cc0df" d="M 605.941406 57.261719 C 604.167969 54.148438 614.410156 49.019531 618.433594 56.042969 C 620.546875 59.726562 618.933594 62.644531 616.441406 65.554688 C 615.402344 63.652344 606.34375 57.980469 605.941406 57.261719 Z M 605.941406 57.261719 " fill-opacity="1" fill-rule="nonzero"/><path fill="#0cc0df" d="M 189.761719 52.082031 C 213.320312 50.152344 236.019531 56.761719 253.507812 72.742188 L 122.609375 186.609375 C 85.859375 132.953125 126.582031 57.253906 189.761719 52.082031 Z M 189.761719 52.082031 " fill-opacity="1" fill-rule="nonzero"/><path fill="#0cc0df" d="M 128.128906 52.707031 C 130.523438 52.152344 136.996094 53.308594 136.484375 56.230469 C 136.207031 57.800781 127.273438 63.527344 125.933594 65.546875 C 121.234375 62.324219 122.417969 54.027344 128.128906 52.707031 Z M 128.128906 52.707031 " fill-opacity="1" fill-rule="nonzero"/><path fill="#020202" d="M 492.277344 161.335938 C 531.140625 189.113281 561.097656 231.839844 573 278.320312 C 574.316406 283.449219 575.554688 290.15625 576.421875 295.421875 C 592.96875 395.933594 535 494.910156 438.914062 528.019531 C 395.652344 542.929688 347.386719 542.761719 304.144531 528.019531 C 232.996094 503.761719 178.925781 440.804688 165.953125 366.570312 C 165.207031 362.289062 165.167969 357.753906 163.902344 353.570312 C 163.9375 352.894531 163.902344 352.195312 163.902344 351.519531 L 163.21875 346.730469 C 163.195312 345.136719 163.21875 343.535156 163.21875 341.941406 C 162.59375 334.054688 162.445312 325.871094 163.21875 318 C 164.402344 291.851562 172.71875 260.636719 184.425781 237.273438 C 203.300781 199.613281 236.828125 165.835938 274.042969 146.285156 C 343.835938 109.609375 428.351562 115.652344 492.277344 161.335938 Z M 492.277344 161.335938 " fill-opacity="1" fill-rule="nonzero"/><path fill="#ffffff" d="M 360.105469 138.273438 C 516.535156 129.777344 618.378906 301.230469 533.609375 434.234375 C 456.378906 555.414062 280.523438 552.746094 206.035156 430.132812 C 130.578125 305.921875 216.09375 146.09375 360.105469 138.273438 Z M 360.105469 138.273438 " fill-opacity="1" fill-rule="nonzero"/><path fill="#0cc0df" d="M 163.21875 341.941406 C 162.082031 341.230469 162.535156 339.347656 162.519531 338.1875 C 162.464844 332.71875 162.453125 327.21875 162.519531 321.746094 C 162.535156 320.589844 162.082031 318.703125 163.21875 317.992188 C 162.863281 325.777344 163.195312 334.089844 163.21875 341.933594 Z M 163.21875 341.941406 " fill-opacity="1" fill-rule="nonzero"/><path fill="#020202" d="M 376.457031 484.449219 C 377.460938 485.339844 378.5625 487.925781 378.734375 489.355469 C 379.164062 492.886719 379.265625 508.03125 378.570312 511.125 C 377.039062 517.929688 364.976562 518.847656 363.703125 510.542969 C 363.164062 507 363.136719 491.515625 363.8125 488.164062 C 364.996094 482.335938 372.253906 480.75 376.449219 484.457031 Z M 376.457031 484.449219 " fill-opacity="1" fill-rule="nonzero"/><path fill="#020202" d="M 190.382812 322.246094 C 193.160156 321.617188 210.449219 321.671875 213.34375 322.261719 C 221.183594 323.847656 220.773438 335.496094 213.34375 336.996094 C 210.222656 337.625 194.195312 337.625 191.082031 336.996094 C 183.414062 335.441406 183.214844 323.867188 190.382812 322.246094 Z M 190.382812 322.246094 " fill-opacity="1" fill-rule="nonzero"/><path fill="#020202" d="M 528.335938 322.246094 C 530.824219 321.6875 550.308594 321.726562 552.511719 322.402344 C 559.285156 324.484375 558.691406 335.875 550.71875 337.105469 C 547.449219 337.613281 531.46875 337.570312 528.644531 336.695312 C 521.988281 334.628906 521.980469 323.667969 528.335938 322.238281 Z M 528.335938 322.246094 " fill-opacity="1" fill-rule="nonzero"/><path fill="#020202" d="M 368.949219 145.757812 C 373.601562 144.816406 378.152344 147.195312 378.726562 152.082031 C 379.183594 155.972656 379.273438 170.265625 378.554688 173.828125 C 376.957031 181.722656 364.742188 181.757812 363.648438 172.632812 C 363.148438 168.5 363.09375 155.445312 363.710938 151.449219 C 364.136719 148.679688 366.171875 146.320312 368.949219 145.753906 Z M 368.949219 145.757812 " fill-opacity="1" fill-rule="nonzero"/><path fill="#020202" d="M 397.28125 321.324219 L 460.464844 321.417969 C 471.125 323.28125 470.828125 335.75 459.707031 337.078125 L 397.636719 336.578125 C 393.632812 343.699219 389.46875 350.125 381.441406 353.222656 C 360.671875 361.234375 339.34375 343.433594 344.988281 321.554688 C 347.496094 311.839844 354.550781 305.308594 363.691406 301.804688 L 363.648438 208.867188 C 365.261719 200.363281 376.3125 200.015625 378.679688 208.238281 L 378.808594 301.832031 C 381.628906 303.78125 384.726562 304.625 387.550781 306.773438 C 392.375 310.433594 395.679688 315.472656 397.28125 321.328125 Z M 397.28125 321.324219 " fill-opacity="1" fill-rule="nonzero"/><path fill="#0cc0df" d="M 368.957031 316.792969 C 386.957031 313.761719 387.96875 342.347656 368.855469 339.828125 C 356.417969 338.191406 356.164062 318.949219 368.957031 316.792969 Z M 368.957031 316.792969 " fill-opacity="1" fill-rule="nonzero"/><g clip-path="url(#eda28aa555)"><g clip-path="url(#a6c78c8de8)"><g clip-path="url(#12f842c9d5)"><g clip-path="url(#33770aeb95)"><path fill="#666666" d="M 123.25 684.605469 L 75.296875 668.046875 L 123.230469 651.507812 Z M 123.25 684.605469 " fill-opacity="1" fill-rule="nonzero"/></g></g></g></g><g clip-path="url(#755bf02d07)"><g clip-path="url(#a5c7467103)"><g clip-path="url(#0c481955f0)"><g clip-path="url(#e138bb9cb4)"><path fill="#000000" d="M 70.613281 672.730469 C 70.414062 672.53125 70.230469 672.320312 70.058594 672.097656 C 69.890625 671.875 69.734375 671.640625 69.589844 671.398438 C 69.449219 671.152344 69.324219 670.902344 69.214844 670.644531 C 69.105469 670.386719 69.011719 670.121094 68.933594 669.851562 C 68.859375 669.582031 68.796875 669.304688 68.757812 669.027344 C 68.714844 668.75 68.691406 668.46875 68.683594 668.1875 C 68.675781 667.90625 68.6875 667.628906 68.71875 667.347656 C 68.746094 667.066406 68.792969 666.792969 68.855469 666.519531 C 68.917969 666.242188 69 665.976562 69.097656 665.710938 C 69.195312 665.449219 69.308594 665.191406 69.441406 664.941406 C 69.570312 664.691406 69.714844 664.453125 69.875 664.222656 C 70.035156 663.992188 70.210938 663.769531 70.398438 663.5625 C 70.585938 663.351562 70.785156 663.15625 71 662.972656 C 71.210938 662.789062 71.4375 662.621094 71.667969 662.464844 C 71.902344 662.308594 72.148438 662.167969 72.398438 662.042969 C 72.652344 661.917969 72.910156 661.8125 73.175781 661.71875 L 121.089844 645.160156 C 122.109375 644.804688 123.152344 644.707031 124.21875 644.863281 C 125.289062 645.019531 126.261719 645.410156 127.136719 646.042969 C 128.011719 646.667969 128.699219 647.460938 129.199219 648.414062 C 129.695312 649.371094 129.949219 650.390625 129.957031 651.46875 L 129.9375 684.5625 C 129.945312 685.640625 129.703125 686.660156 129.210938 687.617188 C 128.71875 688.578125 128.035156 689.367188 127.15625 689.988281 C 126.277344 690.613281 125.304688 691.003906 124.238281 691.160156 C 123.171875 691.3125 122.128906 691.21875 121.109375 690.871094 L 73.117188 674.351562 C 72.15625 674.007812 71.320312 673.464844 70.613281 672.730469 Z M 116.605469 660.816406 L 95.761719 668.003906 L 116.605469 675.195312 Z M 116.605469 660.816406 " fill-opacity="1" fill-rule="nonzero"/></g></g></g></g><g clip-path="url(#1ab533807f)"><g clip-path="url(#5e7af27361)"><g clip-path="url(#3da1db2d2e)"><g clip-path="url(#9e4eec5e38)"><path fill="#ffdfa9" d="M 232.492188 722.488281 L 123.25 684.605469 L 123.230469 651.507812 L 232.59375 613.707031 C 263.226562 649.945312 265.609375 686.164062 232.492188 722.488281 Z M 232.492188 722.488281 " fill-opacity="1" fill-rule="nonzero"/></g></g></g></g><g clip-path="url(#c689a4c5b0)"><g clip-path="url(#d6cd311e17)"><g clip-path="url(#692a5057b2)"><g clip-path="url(#81f63eed33)"><path fill="#000000" d="M 118.527344 689.328125 C 117.902344 688.699219 117.421875 687.976562 117.082031 687.160156 C 116.742188 686.339844 116.570312 685.488281 116.5625 684.605469 L 116.582031 651.507812 C 116.582031 650.816406 116.6875 650.140625 116.898438 649.480469 C 117.109375 648.820312 117.414062 648.207031 117.8125 647.644531 C 118.210938 647.078125 118.6875 646.585938 119.242188 646.171875 C 119.792969 645.753906 120.394531 645.429688 121.050781 645.199219 L 230.410156 607.398438 C 231.046875 607.183594 231.703125 607.066406 232.375 607.046875 C 233.046875 607.03125 233.707031 607.109375 234.355469 607.292969 C 235.003906 607.472656 235.609375 607.742188 236.175781 608.105469 C 236.742188 608.46875 237.246094 608.90625 237.679688 609.421875 C 271.816406 649.765625 271.757812 689.308594 237.5 726.890625 C 237.0625 727.375 236.566406 727.785156 236.011719 728.125 C 235.453125 728.460938 234.859375 728.710938 234.230469 728.871094 C 233.597656 729.03125 232.957031 729.09375 232.304688 729.066406 C 231.65625 729.035156 231.023438 728.910156 230.410156 728.691406 L 121.070312 690.910156 C 120.097656 690.578125 119.25 690.050781 118.527344 689.328125 Z M 129.820312 656.171875 L 129.839844 679.777344 L 230.449219 714.558594 C 256.121094 684.484375 256.121094 654.011719 230.371094 621.535156 Z M 129.820312 656.171875 " fill-opacity="1" fill-rule="nonzero"/></g></g></g></g><g clip-path="url(#ead69d70bf)"><g clip-path="url(#b3ab05c46a)"><g clip-path="url(#a0e956437c)"><g clip-path="url(#26835bc898)"><path fill="#ef4136" d="M 580.242188 722.328125 L 579.097656 722.304688 L 579.160156 613.726562 C 579.558594 613.726562 579.941406 613.707031 580.320312 613.726562 C 582.058594 613.792969 583.785156 613.941406 585.507812 614.171875 C 587.230469 614.402344 588.9375 614.71875 590.628906 615.113281 C 592.320312 615.507812 593.988281 615.984375 595.636719 616.539062 C 597.28125 617.09375 598.898438 617.726562 600.484375 618.4375 C 602.070312 619.148438 603.617188 619.933594 605.125 620.792969 C 606.636719 621.652344 608.101562 622.582031 609.523438 623.582031 C 610.945312 624.578125 612.316406 625.644531 613.632812 626.777344 C 614.953125 627.90625 616.214844 629.097656 617.417969 630.351562 C 618.625 631.601562 619.765625 632.910156 620.84375 634.273438 C 621.925781 635.632812 622.9375 637.042969 623.878906 638.503906 C 624.824219 639.960938 625.695312 641.460938 626.496094 643.003906 C 627.296875 644.546875 628.019531 646.121094 628.667969 647.734375 C 629.316406 649.347656 629.886719 650.984375 630.378906 652.652344 C 630.871094 654.320312 631.28125 656.003906 631.609375 657.710938 C 631.941406 659.417969 632.1875 661.132812 632.351562 662.863281 C 632.519531 664.59375 632.601562 666.328125 632.597656 668.0625 C 632.597656 669.800781 632.511719 671.535156 632.347656 673.265625 C 632.179688 674.992188 631.929688 676.710938 631.597656 678.417969 C 631.261719 680.121094 630.851562 681.808594 630.355469 683.472656 C 629.863281 685.140625 629.289062 686.777344 628.640625 688.386719 C 627.988281 690 627.261719 691.574219 626.457031 693.117188 C 625.65625 694.65625 624.78125 696.15625 623.835938 697.613281 C 622.890625 699.070312 621.875 700.480469 620.796875 701.839844 C 619.714844 703.199219 618.570312 704.503906 617.363281 705.753906 C 616.15625 707.003906 614.894531 708.195312 613.574219 709.324219 C 612.253906 710.453125 610.878906 711.515625 609.457031 712.515625 C 608.035156 713.511719 606.570312 714.4375 605.058594 715.296875 C 603.546875 716.152344 601.996094 716.933594 600.410156 717.644531 C 598.824219 718.351562 597.207031 718.980469 595.558594 719.535156 C 593.914062 720.089844 592.242188 720.5625 590.550781 720.953125 C 588.859375 721.347656 587.152344 721.660156 585.429688 721.886719 C 583.707031 722.117188 581.976562 722.261719 580.242188 722.328125 Z M 580.242188 722.328125 " fill-opacity="1" fill-rule="nonzero"/></g></g></g></g><g clip-path="url(#49ccdb0e04)"><g clip-path="url(#9ccb50fa1c)"><g clip-path="url(#3eb64dfcd2)"><g clip-path="url(#6b949f661e)"><path fill="#000000" d="M 574.453125 727.113281 C 573.828125 726.488281 573.351562 725.769531 573.011719 724.953125 C 572.675781 724.136719 572.507812 723.289062 572.511719 722.40625 L 572.613281 613.824219 C 572.617188 613.398438 572.667969 612.972656 572.753906 612.554688 C 572.84375 612.136719 572.972656 611.730469 573.136719 611.335938 C 573.304688 610.941406 573.507812 610.566406 573.746094 610.210938 C 573.988281 609.859375 574.257812 609.527344 574.558594 609.226562 C 574.863281 608.921875 575.191406 608.652344 575.546875 608.414062 C 575.902344 608.175781 576.277344 607.972656 576.671875 607.804688 C 577.0625 607.636719 577.46875 607.507812 577.890625 607.421875 C 578.308594 607.332031 578.730469 607.285156 579.160156 607.277344 C 579.578125 607.257812 580 607.238281 580.421875 607.257812 C 581.453125 607.203125 582.484375 607.171875 583.519531 607.167969 C 584.550781 607.164062 585.585938 607.183594 586.617188 607.234375 C 587.652344 607.28125 588.679688 607.355469 589.710938 607.457031 C 590.738281 607.558594 591.761719 607.683594 592.785156 607.835938 C 593.808594 607.992188 594.824219 608.167969 595.839844 608.375 C 596.851562 608.578125 597.859375 608.808594 598.859375 609.066406 C 599.863281 609.320312 600.855469 609.601562 601.84375 609.90625 C 602.832031 610.214844 603.808594 610.546875 604.78125 610.902344 C 605.75 611.257812 606.710938 611.636719 607.660156 612.042969 C 608.613281 612.449219 609.550781 612.878906 610.480469 613.328125 C 611.410156 613.78125 612.328125 614.257812 613.230469 614.757812 C 614.136719 615.257812 615.027344 615.78125 615.90625 616.324219 C 616.785156 616.867188 617.648438 617.4375 618.5 618.023438 C 619.347656 618.613281 620.183594 619.222656 621 619.855469 C 621.820312 620.484375 622.621094 621.136719 623.40625 621.808594 C 624.191406 622.480469 624.960938 623.171875 625.710938 623.882812 C 626.460938 624.59375 627.191406 625.320312 627.90625 626.070312 C 628.621094 626.816406 629.3125 627.585938 629.988281 628.367188 C 630.660156 629.152344 631.316406 629.949219 631.949219 630.765625 C 632.582031 631.582031 633.195312 632.414062 633.785156 633.261719 C 634.378906 634.109375 634.949219 634.972656 635.496094 635.851562 C 636.042969 636.726562 636.566406 637.617188 637.070312 638.519531 C 637.570312 639.421875 638.050781 640.339844 638.507812 641.265625 C 638.960938 642.195312 639.394531 643.132812 639.800781 644.082031 C 640.210938 645.03125 640.59375 645.992188 640.953125 646.960938 C 641.3125 647.929688 641.648438 648.90625 641.957031 649.894531 C 642.265625 650.878906 642.550781 651.871094 642.808594 652.875 C 643.066406 653.875 643.300781 654.878906 643.507812 655.894531 C 643.71875 656.90625 643.898438 657.921875 644.054688 658.945312 C 644.210938 659.964844 644.339844 660.992188 644.445312 662.019531 C 644.550781 663.046875 644.628906 664.078125 644.679688 665.109375 C 644.730469 666.140625 644.757812 667.175781 644.753906 668.207031 C 644.753906 669.242188 644.726562 670.273438 644.675781 671.308594 C 644.621094 672.339844 644.539062 673.371094 644.433594 674.398438 C 644.328125 675.425781 644.199219 676.449219 644.039062 677.472656 C 643.882812 678.492188 643.699219 679.511719 643.488281 680.523438 C 643.28125 681.535156 643.042969 682.539062 642.785156 683.539062 C 642.523438 684.542969 642.238281 685.535156 641.925781 686.519531 C 641.613281 687.503906 641.277344 688.480469 640.917969 689.449219 C 640.558594 690.417969 640.171875 691.378906 639.761719 692.328125 C 639.351562 693.277344 638.917969 694.214844 638.460938 695.140625 C 638.003906 696.066406 637.523438 696.984375 637.019531 697.886719 C 636.515625 698.789062 635.992188 699.675781 635.441406 700.550781 C 634.894531 701.429688 634.320312 702.289062 633.730469 703.136719 C 633.136719 703.984375 632.523438 704.8125 631.886719 705.628906 C 631.253906 706.445312 630.597656 707.242188 629.921875 708.027344 C 629.246094 708.808594 628.550781 709.574219 627.835938 710.320312 C 627.121094 711.066406 626.390625 711.792969 625.636719 712.503906 C 624.886719 713.214844 624.117188 713.902344 623.332031 714.574219 C 622.542969 715.246094 621.742188 715.894531 620.921875 716.523438 C 620.101562 717.15625 619.265625 717.761719 618.417969 718.351562 C 617.566406 718.9375 616.699219 719.503906 615.820312 720.046875 C 614.941406 720.589844 614.050781 721.109375 613.144531 721.609375 C 612.238281 722.105469 611.320312 722.578125 610.390625 723.03125 C 609.460938 723.484375 608.519531 723.910156 607.570312 724.3125 C 606.617188 724.714844 605.65625 725.09375 604.683594 725.449219 C 603.714844 725.804688 602.734375 726.132812 601.746094 726.4375 C 600.761719 726.742188 599.765625 727.023438 598.761719 727.277344 C 597.761719 727.53125 596.753906 727.761719 595.742188 727.964844 C 594.726562 728.167969 593.710938 728.34375 592.6875 728.496094 C 591.664062 728.644531 590.636719 728.769531 589.609375 728.871094 C 588.582031 728.96875 587.550781 729.042969 586.519531 729.089844 C 585.484375 729.136719 584.453125 729.15625 583.417969 729.148438 C 582.386719 729.144531 581.351562 729.113281 580.320312 729.054688 L 579.160156 729.054688 C 578.277344 729.054688 577.429688 728.890625 576.613281 728.550781 C 575.796875 728.214844 575.078125 727.734375 574.453125 727.113281 Z M 585.808594 620.652344 L 585.828125 715.417969 C 587.265625 715.253906 588.699219 715.027344 590.117188 714.734375 C 591.535156 714.441406 592.941406 714.082031 594.328125 713.660156 C 595.714844 713.242188 597.078125 712.757812 598.421875 712.210938 C 599.765625 711.664062 601.082031 711.058594 602.371094 710.394531 C 603.65625 709.726562 604.910156 709.003906 606.132812 708.222656 C 607.355469 707.441406 608.539062 706.609375 609.683594 705.71875 C 610.832031 704.832031 611.933594 703.894531 612.992188 702.90625 C 614.054688 701.914062 615.066406 700.878906 616.03125 699.800781 C 617 698.71875 617.914062 697.59375 618.777344 696.429688 C 619.640625 695.265625 620.449219 694.0625 621.203125 692.824219 C 621.953125 691.585938 622.652344 690.316406 623.289062 689.015625 C 623.925781 687.714844 624.503906 686.382812 625.019531 685.03125 C 625.535156 683.675781 625.992188 682.300781 626.382812 680.902344 C 626.773438 679.507812 627.101562 678.097656 627.363281 676.671875 C 627.625 675.246094 627.820312 673.8125 627.953125 672.367188 C 628.085938 670.921875 628.152344 669.476562 628.152344 668.027344 C 628.152344 666.578125 628.085938 665.128906 627.953125 663.6875 C 627.820312 662.242188 627.621094 660.808594 627.359375 659.382812 C 627.097656 657.957031 626.769531 656.546875 626.375 655.148438 C 625.984375 653.753906 625.53125 652.378906 625.011719 651.023438 C 624.496094 649.671875 623.917969 648.34375 623.28125 647.039062 C 622.640625 645.738281 621.945312 644.46875 621.191406 643.230469 C 620.4375 641.992188 619.628906 640.792969 618.765625 639.628906 C 617.898438 638.464844 616.984375 637.339844 616.019531 636.257812 C 615.054688 635.179688 614.039062 634.144531 612.980469 633.15625 C 611.917969 632.167969 610.816406 631.230469 609.667969 630.339844 C 608.523438 629.453125 607.339844 628.621094 606.117188 627.839844 C 604.894531 627.058594 603.640625 626.335938 602.351562 625.671875 C 601.0625 625.007812 599.746094 624.402344 598.40625 623.855469 C 597.0625 623.308594 595.695312 622.828125 594.308594 622.40625 C 592.921875 621.984375 591.515625 621.628906 590.097656 621.335938 C 588.675781 621.042969 587.246094 620.816406 585.808594 620.652344 Z M 585.808594 620.652344 " fill-opacity="1" fill-rule="nonzero"/></g></g></g></g><g clip-path="url(#1258dd0b52)"><g clip-path="url(#2ac337a8fd)"><g clip-path="url(#0bfdd35d3f)"><g clip-path="url(#2b6e29f5ae)"><path fill="#ffb028" d="M 579.160156 613.726562 L 579.179688 722.386719 L 232.492188 722.488281 C 265.53125 686.246094 263.148438 650.027344 232.511719 613.785156 L 516.167969 613.726562 L 516.230469 722.265625 L 579.140625 722.265625 " fill-opacity="1" fill-rule="nonzero"/></g></g></g></g><g clip-path="url(#f3542fe54d)"><g clip-path="url(#719b9a318a)"><g clip-path="url(#5cc43b3a84)"><g clip-path="url(#8de923a088)"><path fill="#000000" d="M 227.867188 727.113281 C 227.570312 726.8125 227.300781 726.484375 227.066406 726.132812 C 226.828125 725.78125 226.625 725.410156 226.460938 725.023438 C 226.292969 724.632812 226.167969 724.230469 226.078125 723.816406 C 225.988281 723.402344 225.9375 722.984375 225.925781 722.558594 C 225.917969 722.136719 225.945312 721.714844 226.015625 721.296875 C 226.085938 720.878906 226.195312 720.472656 226.34375 720.074219 C 226.488281 719.679688 226.671875 719.296875 226.890625 718.9375 C 227.113281 718.574219 227.363281 718.234375 227.648438 717.921875 C 257.082031 685.605469 257.039062 652.929688 227.46875 617.988281 C 227.0625 617.503906 226.730469 616.972656 226.472656 616.394531 C 226.21875 615.816406 226.050781 615.210938 225.96875 614.585938 C 225.882812 613.957031 225.890625 613.332031 225.988281 612.703125 C 226.082031 612.078125 226.265625 611.480469 226.53125 610.90625 C 226.796875 610.332031 227.140625 609.804688 227.554688 609.332031 C 227.972656 608.855469 228.449219 608.445312 228.980469 608.105469 C 229.515625 607.765625 230.085938 607.503906 230.691406 607.328125 C 231.300781 607.148438 231.921875 607.058594 232.554688 607.058594 L 516.1875 607.058594 C 516.625 607.054688 517.058594 607.097656 517.488281 607.183594 C 517.917969 607.265625 518.332031 607.390625 518.738281 607.558594 C 519.140625 607.722656 519.523438 607.929688 519.886719 608.171875 C 520.25 608.414062 520.585938 608.691406 520.894531 609 C 521.203125 609.308594 521.480469 609.644531 521.722656 610.007812 C 521.964844 610.371094 522.167969 610.753906 522.335938 611.15625 C 522.503906 611.5625 522.628906 611.976562 522.710938 612.40625 C 522.796875 612.835938 522.839844 613.269531 522.835938 613.707031 L 522.898438 715.597656 L 572.550781 715.597656 L 572.613281 613.824219 C 572.613281 613.386719 572.65625 612.953125 572.738281 612.523438 C 572.824219 612.09375 572.953125 611.679688 573.121094 611.273438 C 573.285156 610.871094 573.492188 610.484375 573.734375 610.121094 C 573.980469 609.757812 574.253906 609.421875 574.566406 609.109375 C 574.875 608.800781 575.210938 608.523438 575.574219 608.28125 C 575.9375 608.039062 576.324219 607.832031 576.726562 607.664062 C 577.132812 607.496094 577.550781 607.371094 577.980469 607.285156 C 578.40625 607.199219 578.839844 607.15625 579.28125 607.15625 C 579.71875 607.15625 580.152344 607.199219 580.582031 607.285156 C 581.007812 607.371094 581.425781 607.496094 581.832031 607.664062 C 582.234375 607.832031 582.621094 608.039062 582.984375 608.28125 C 583.347656 608.523438 583.683594 608.800781 583.992188 609.109375 C 584.304688 609.421875 584.578125 609.757812 584.824219 610.121094 C 585.066406 610.484375 585.273438 610.871094 585.4375 611.273438 C 585.605469 611.679688 585.734375 612.09375 585.820312 612.523438 C 585.902344 612.953125 585.945312 613.386719 585.945312 613.824219 L 585.925781 722.488281 C 585.929688 722.925781 585.886719 723.359375 585.800781 723.789062 C 585.714844 724.21875 585.589844 724.636719 585.421875 725.039062 C 585.253906 725.445312 585.050781 725.828125 584.808594 726.195312 C 584.5625 726.558594 584.289062 726.894531 583.976562 727.203125 C 583.667969 727.515625 583.332031 727.792969 582.964844 728.035156 C 582.601562 728.277344 582.21875 728.484375 581.8125 728.648438 C 581.40625 728.816406 580.992188 728.941406 580.5625 729.027344 C 580.132812 729.113281 579.699219 729.15625 579.257812 729.152344 L 232.59375 729.074219 C 231.707031 729.074219 230.851562 728.90625 230.035156 728.566406 C 229.214844 728.226562 228.492188 727.742188 227.867188 727.113281 Z M 246.128906 620.394531 C 268.773438 652.96875 268.933594 684.964844 246.628906 715.757812 L 509.523438 715.71875 L 509.523438 620.371094 Z M 246.128906 620.394531 " fill-opacity="1" fill-rule="nonzero"/></g></g></g></g><g clip-path="url(#c0d3e67cc9)"><g clip-path="url(#5e52188d83)"><g clip-path="url(#c5f6a956fc)"><g clip-path="url(#154f684674)"><path fill="#6ee1ef" d="M 579.097656 722.226562 L 516.230469 722.265625 L 516.167969 613.726562 L 579.121094 613.726562 Z M 579.097656 722.226562 " fill-opacity="1" fill-rule="nonzero"/></g></g></g></g><g clip-path="url(#162631257a)"><g clip-path="url(#67641f8a1d)"><g clip-path="url(#8e6251fd87)"><g clip-path="url(#864fee54f0)"><path fill="#000000" d="M 511.523438 726.972656 C 510.898438 726.347656 510.414062 725.628906 510.070312 724.8125 C 509.726562 724 509.550781 723.148438 509.542969 722.265625 L 509.523438 613.726562 C 509.519531 613.289062 509.5625 612.851562 509.648438 612.421875 C 509.734375 611.992188 509.859375 611.578125 510.027344 611.171875 C 510.191406 610.765625 510.398438 610.382812 510.640625 610.019531 C 510.882812 609.652344 511.160156 609.316406 511.46875 609.007812 C 511.78125 608.695312 512.117188 608.421875 512.480469 608.175781 C 512.847656 607.933594 513.230469 607.730469 513.636719 607.5625 C 514.039062 607.394531 514.457031 607.269531 514.886719 607.183594 C 515.316406 607.097656 515.75 607.058594 516.1875 607.058594 L 579.097656 607.058594 C 579.539062 607.058594 579.972656 607.097656 580.402344 607.183594 C 580.832031 607.269531 581.246094 607.394531 581.652344 607.5625 C 582.058594 607.730469 582.441406 607.933594 582.804688 608.175781 C 583.171875 608.421875 583.507812 608.695312 583.816406 609.007812 C 584.128906 609.316406 584.402344 609.652344 584.648438 610.019531 C 584.890625 610.382812 585.09375 610.765625 585.261719 611.171875 C 585.429688 611.578125 585.554688 611.992188 585.640625 612.421875 C 585.726562 612.851562 585.765625 613.289062 585.765625 613.726562 L 585.765625 722.246094 C 585.761719 723.125 585.589844 723.972656 585.25 724.785156 C 584.910156 725.59375 584.429688 726.3125 583.804688 726.929688 C 583.179688 727.554688 582.460938 728.039062 581.644531 728.382812 C 580.832031 728.726562 579.984375 728.902344 579.097656 728.914062 L 516.167969 728.894531 C 515.300781 728.886719 514.464844 728.714844 513.660156 728.382812 C 512.855469 728.050781 512.144531 727.582031 511.523438 726.972656 Z M 522.835938 620.394531 L 522.898438 715.597656 L 572.472656 715.597656 L 572.433594 620.371094 Z M 522.835938 620.394531 " fill-opacity="1" fill-rule="nonzero"/></g></g></g></g></svg>